<svg width="155.8" height="107px" viewBox="0 0 155.8 107" style="fill:#221f1f" preserveAspectRatio="xMidYMin"
     xmlns="http://www.w3.org/2000/svg">
    <g id="svgGroup" stroke-linecap="round" fill-rule="evenodd" font-size="9pt" stroke="#000" stroke-width="0.25mm"
       fill="#000" style="stroke:#000;stroke-width:0.25mm;fill:#000">
        <path d="M 8.7 21.6 L 1.1 24.1 C 0.4 24.3 0 24.7 0 25.2 A 3.309 3.309 0 0 0 0.067 25.884 C 0.394 27.467 1.825 28.244 1.897 39.868 A 149.424 149.424 0 0 1 1.9 40.8 L 1.9 71 A 4.715 4.715 0 0 0 1.921 71.489 C 1.995 72.193 2.302 72.4 3.3 72.4 L 13.2 72.4 C 14.4 72.4 14.6 72.1 14.6 71 L 14.6 35.9 A 27.25 27.25 0 0 1 15.129 35.424 C 16.502 34.22 19.033 32.294 22.186 31.88 A 9.319 9.319 0 0 1 23.4 31.8 A 6.316 6.316 0 0 1 25.433 32.104 C 28.08 33 28.787 35.738 28.954 38.476 A 28.498 28.498 0 0 1 29 40.2 L 29 71 A 4.715 4.715 0 0 0 29.021 71.489 C 29.095 72.193 29.402 72.4 30.4 72.4 L 40.3 72.4 C 41.5 72.4 41.7 72.1 41.7 71 L 41.7 35.9 A 23.266 23.266 0 0 0 41.31 31.487 C 39.702 23.168 33.454 21.3 28.7 21.3 A 19.849 19.849 0 0 0 24.434 21.75 C 20.038 22.714 16.979 25.049 14.734 27.01 A 133.332 133.332 0 0 0 13.4 28.2 A 97.019 97.019 0 0 0 13.098 26.944 C 12.318 23.803 11.663 22.023 10.804 21.48 A 1.109 1.109 0 0 0 10.2 21.3 A 3.101 3.101 0 0 0 9.752 21.336 C 9.445 21.381 9.094 21.469 8.7 21.6 Z M 126.6 51.1 L 153.5 51.1 A 5.612 5.612 0 0 0 154.311 51.05 C 155.519 50.872 155.8 50.192 155.8 48.6 A 60.561 60.561 0 0 0 155.488 42.273 C 154.382 31.787 149.92 21.3 135.8 21.3 A 20.28 20.28 0 0 0 116.58 34.206 C 115.082 37.623 114.18 41.603 113.955 46.006 A 43.143 43.143 0 0 0 113.9 48.2 A 41.846 41.846 0 0 0 114.836 57.423 C 117.491 69.149 125.575 74.1 136.3 74.1 A 33.835 33.835 0 0 0 139.868 73.901 C 146.782 73.163 153.927 70.521 154.192 68.326 A 1.043 1.043 0 0 0 154.2 68.2 A 2.167 2.167 0 0 0 154.028 67.334 A 1.559 1.559 0 0 0 153.9 67.1 L 151.4 61.1 A 1.458 1.458 0 0 0 150.562 60.337 A 0.947 0.947 0 0 0 150.3 60.3 C 148.979 60.3 145.254 63.239 138.789 63.57 A 23.213 23.213 0 0 1 137.6 63.6 A 14.816 14.816 0 0 1 133.992 63.192 C 128.924 61.921 127.208 57.875 126.745 53.829 A 24.125 24.125 0 0 1 126.6 51.1 Z M 99.4 56.6 L 99.4 2.1 A 14.424 14.424 0 0 0 99.39 1.522 C 99.341 0.306 99.1 0 98.4 0 A 0.497 0.497 0 0 0 98.326 0.008 C 98.037 0.054 97.272 0.3 97 0.3 L 88.6 2 A 21.359 21.359 0 0 1 88.311 2.07 C 87.288 2.311 86.7 2.425 86.7 3.8 L 86.7 54.8 A 255.697 255.697 0 0 0 86.707 57.07 C 86.77 64.237 87.435 71.405 94.379 73.494 A 16.021 16.021 0 0 0 99 74.1 A 26.253 26.253 0 0 0 100.249 74.07 C 104.459 73.869 108.668 72.702 109.069 71.487 A 0.595 0.595 0 0 0 109.1 71.3 C 109.1 71.009 109.006 71.001 108.909 70.544 A 3.796 3.796 0 0 1 108.9 70.5 L 106.9 62.3 C 106.812 61.948 106.569 61.751 106.239 61.709 A 1.098 1.098 0 0 0 106.1 61.7 A 1.154 1.154 0 0 0 105.805 61.749 C 105.253 61.899 104.364 62.361 103.138 62.534 A 6.707 6.707 0 0 1 102.2 62.6 A 2.783 2.783 0 0 1 100.924 62.332 C 99.4 61.559 99.4 59.213 99.4 56.6 Z M 70.7 23 L 51.7 23 C 50.5 23 50.3 23.3 50.3 24.4 L 50.3 30.9 A 4.715 4.715 0 0 0 50.321 31.389 C 50.395 32.093 50.702 32.3 51.7 32.3 L 59.4 32.3 L 59.4 71 A 4.715 4.715 0 0 0 59.421 71.489 C 59.495 72.193 59.802 72.4 60.8 72.4 L 70.7 72.4 C 71.9 72.4 72.1 72.1 72.1 71 L 72.1 24.4 A 4.715 4.715 0 0 0 72.079 23.911 C 72.005 23.208 71.699 23 70.7 23 Z M 73.9 8.2 C 73.9 3.6 70.2 0 65.7 0 A 8.286 8.286 0 0 0 58.731 3.708 A 8.14 8.14 0 0 0 57.4 8.2 C 57.4 12.8 61.1 16.5 65.7 16.5 C 70.2 16.5 73.9 12.8 73.9 8.2 Z M 142.3 41.8 L 126.6 41.8 A 26.271 26.271 0 0 0 126.606 41.747 C 126.905 38.896 127.349 30.6 135.1 30.6 A 7.758 7.758 0 0 1 137.542 30.961 C 142.075 32.457 142.3 38.252 142.3 41.8 Z"
              vector-effect="non-scaling-stroke"
              style="fill: white; paint-order: fill; fill-rule: evenodd;" />
    </g>
    <path id="arrow"
          d="M 146.279 95.16 C 131.06 83.943 109.001 77.958 90.009 77.958 C 63.379 77.958 39.404 87.807 21.267 104.189 C 19.842 105.478 21.118 107.233 22.829 106.23 C 42.402 94.841 66.604 87.989 91.605 87.989 C 108.465 87.989 127.013 91.478 144.067 98.717 C 146.644 99.811 148.798 97.03 146.279 95.16"
          style="fill: rgb(255, 153, 0);" transform="matrix(-1, 0, 0, -1, 168.053825, 184.484932)" />
    <path id="arrow-head"
          d="M 27.446 94.017 C 25.509 96.501 14.588 95.19 9.685 94.609 C 8.192 94.427 7.964 95.726 9.309 96.66 C 18.007 102.783 32.28 101.016 33.945 98.963 C 35.609 96.9 33.511 82.594 25.337 75.765 C 24.084 74.716 22.887 75.275 23.445 76.665 C 25.281 81.248 29.395 91.519 27.446 94.017"
          style="fill: rgb(255, 153, 0);" transform="matrix(-1, 0, 0, -1, 42.894979, 176.101814)" />
</svg>